<svg width="730" height="146" viewBox="0 0 730 146" fill="none" xmlns="http://www.w3.org/2000/svg">
<g clip-path="url(#clip0_325_2)">
<path d="M206.783 80.24C204.825 79.1049 202.754 78.1775 200.603 77.473C197.694 76.6435 194.681 76.2393 191.657 76.273C188.241 76.2172 184.841 76.7475 181.604 77.841C178.983 78.734 176.568 80.1453 174.504 81.991C172.64 83.6303 171.187 85.6836 170.261 87.986C168.516 92.2563 168.417 97.0219 169.983 101.361C170.692 103.424 171.787 105.334 173.211 106.987C174.775 108.745 176.613 110.24 178.653 111.414C181.093 112.695 183.701 113.626 186.4 114.181C188.897 114.631 191.362 115.247 193.778 116.026C195.498 116.544 197.142 117.288 198.666 118.239C199.785 118.951 200.705 119.934 201.341 121.098C201.876 122.252 202.129 123.516 202.079 124.787C202.094 125.983 201.855 127.169 201.378 128.266C200.901 129.363 200.197 130.346 199.312 131.151C197.467 132.903 194.612 133.826 190.735 133.826C188.818 133.873 186.91 133.561 185.109 132.904C183.51 132.373 181.99 131.629 180.59 130.691C179.299 129.859 178.093 128.901 176.99 127.832C176.174 127.079 175.404 126.278 174.684 125.432L166.384 133.732C167.306 134.747 168.321 135.853 169.52 136.96C171.165 138.499 172.993 139.831 174.962 140.926C177.205 142.185 179.588 143.175 182.062 143.877C184.945 144.675 187.924 145.078 190.916 145.077C194.113 145.127 197.295 144.627 200.323 143.601C203.059 142.672 205.594 141.232 207.794 139.358C209.831 137.583 211.493 135.42 212.682 132.994C213.878 130.523 214.478 127.807 214.434 125.062C214.509 122.117 213.942 119.19 212.774 116.485C211.763 114.179 210.288 112.107 208.439 110.398C206.626 108.703 204.536 107.33 202.26 106.34C199.9 105.283 197.424 104.509 194.882 104.034C192.629 103.609 190.41 103.024 188.241 102.282C186.752 101.804 185.35 101.088 184.091 100.161C183.159 99.513 182.424 98.6192 181.97 97.579C181.509 96.5998 181.287 95.5248 181.324 94.443C181.342 93.5024 181.566 92.5771 181.981 91.7326C182.396 90.888 182.991 90.1447 183.724 89.555C184.624 88.7919 185.656 88.1983 186.768 87.803C188.192 87.3225 189.692 87.1036 191.195 87.157C192.914 87.1421 194.625 87.391 196.268 87.895C197.606 88.3702 198.901 88.9562 200.142 89.647C201.119 90.202 202.019 90.8843 202.817 91.676C203.186 92.045 203.555 92.322 203.832 92.598L211.764 84.666C211.395 84.297 211.026 83.836 210.564 83.283C209.476 82.0708 208.2 81.0431 206.783 80.24V80.24Z" fill="#292929"/>
<path d="M324.925 85.405C323.036 83.1867 320.672 81.4215 318.008 80.24C314.462 78.7067 310.618 77.9822 306.756 78.119H293.567L285.82 85.866V143.419H297.625V119.161H307.494C310.124 119.169 312.738 118.764 315.241 117.961C317.804 117.219 320.189 115.964 322.251 114.272C324.421 112.545 326.157 110.336 327.32 107.819C328.689 104.877 329.352 101.656 329.257 98.412C329.208 96.2244 328.867 94.0532 328.242 91.956C327.687 89.5348 326.548 87.286 324.925 85.405V85.405ZM314.134 105.972C313.142 106.916 311.968 107.648 310.683 108.123C309.399 108.599 308.031 108.808 306.663 108.739H297.72V88.449H306.666C308.692 88.4574 310.672 89.0589 312.36 90.1794C314.048 91.2998 315.371 92.8901 316.165 94.7538C316.96 96.6176 317.191 98.6732 316.831 100.667C316.47 102.661 315.534 104.505 314.137 105.973L314.134 105.972Z" fill="#292929"/>
<path d="M350.105 132.35V115.288H372.148V104.312H350.105V88.912H380.079V78.119H345.493L337.838 85.774V143.419H382.385V132.35H350.105Z" fill="#292929"/>
<path d="M424.255 116.025C427.683 114.343 430.562 111.72 432.555 108.462C434.366 105.124 435.287 101.376 435.23 97.579C435.219 95.3426 434.812 93.1259 434.03 91.031C433.189 88.6933 431.87 86.557 430.156 84.759C428.225 82.7011 425.863 81.096 423.239 80.059C419.892 78.7542 416.32 78.1261 412.729 78.211H398.802L391.055 85.774V143.325H402.855V117.593H412.17L425.359 143.325H429.786L435.873 137.238L424.255 116.025ZM420.105 104.681C419.154 105.63 418.013 106.367 416.758 106.844C415.502 107.321 414.16 107.527 412.819 107.448H402.955V88.541H412.824C414.126 88.4853 415.427 88.6936 416.647 89.1533C417.867 89.613 418.982 90.3146 419.924 91.216C420.838 92.0955 421.557 93.1579 422.034 94.3338C422.511 95.5097 422.735 96.7728 422.691 98.041C422.723 100.506 421.797 102.887 420.107 104.681H420.105Z" fill="#292929"/>
<path d="M558.816 86.327C554.018 81.5088 547.892 78.2326 541.22 76.9182C534.549 75.6037 527.638 76.3109 521.371 78.949C517.312 80.654 513.641 83.1638 510.58 86.327C507.52 89.4713 505.08 93.1632 503.386 97.21C500.755 103.517 500.042 110.46 501.338 117.17C502.634 123.88 505.881 130.059 510.672 134.932C513.733 138.095 517.404 140.605 521.463 142.31C525.664 144.088 530.182 144.998 534.744 144.985C539.308 145.017 543.829 144.106 548.025 142.31C552.071 140.582 555.738 138.075 558.816 134.932C561.876 131.734 564.343 128.018 566.103 123.957C567.869 119.719 568.778 115.174 568.778 110.583C568.778 105.993 567.869 101.448 566.103 97.21C564.342 93.1772 561.874 89.4916 558.816 86.327V86.327ZM554.297 119.161C553.346 121.859 551.908 124.36 550.054 126.539C548.198 128.653 545.941 130.378 543.413 131.612C540.668 132.828 537.699 133.457 534.697 133.457C531.695 133.457 528.726 132.828 525.981 131.612C523.434 130.409 521.171 128.68 519.341 126.539C517.488 124.36 516.05 121.859 515.099 119.161C513.131 113.422 513.131 107.192 515.099 101.453C516.051 98.7831 517.489 96.3127 519.341 94.167C521.175 92.0538 523.439 90.3561 525.981 89.187C528.732 87.9396 531.723 87.3098 534.743 87.342C537.733 87.3096 540.694 87.9396 543.412 89.187C545.954 90.356 548.218 92.0537 550.053 94.167C551.905 96.3127 553.344 98.7831 554.296 101.453C555.307 104.294 555.807 107.292 555.771 110.307C555.763 113.318 555.267 116.308 554.302 119.161H554.297Z" fill="#292929"/>
<path d="M646.808 85.774V143.419H659.167V78.119H654.555L646.808 85.774Z" fill="#292929"/>
<path d="M486.977 80.24C485.02 79.1048 482.949 78.1774 480.798 77.473C477.89 76.6435 474.876 76.2394 471.852 76.273C468.436 76.2172 465.036 76.7475 461.799 77.841C459.178 78.7339 456.763 80.1453 454.699 81.991C452.836 83.6302 451.382 85.6835 450.456 87.986C448.712 92.2559 448.614 97.0209 450.18 101.359C450.889 103.422 451.985 105.332 453.408 106.985C454.972 108.743 456.81 110.238 458.849 111.412C461.289 112.693 463.898 113.624 466.597 114.179C469.095 114.629 471.56 115.245 473.975 116.024C475.695 116.542 477.339 117.286 478.863 118.237C479.982 118.949 480.902 119.932 481.538 121.096C482.073 122.25 482.326 123.514 482.275 124.785C482.29 125.981 482.052 127.167 481.575 128.264C481.098 129.361 480.393 130.344 479.508 131.149C477.663 132.901 474.808 133.824 470.931 133.824C469.015 133.871 467.106 133.559 465.305 132.902C463.706 132.371 462.186 131.627 460.786 130.689C459.495 129.857 458.289 128.899 457.186 127.83C456.37 127.077 455.6 126.275 454.88 125.43L446.58 133.73C447.502 134.745 448.517 135.851 449.716 136.958C451.361 138.497 453.188 139.829 455.157 140.924C457.4 142.183 459.783 143.173 462.257 143.875C465.141 144.673 468.119 145.076 471.111 145.075C474.308 145.125 477.49 144.625 480.518 143.599C483.254 142.67 485.79 141.23 487.989 139.356C490.026 137.581 491.688 135.418 492.877 132.992C494.073 130.521 494.673 127.805 494.629 125.06C494.704 122.115 494.137 119.188 492.969 116.483C491.959 114.177 490.483 112.105 488.634 110.396C486.821 108.701 484.731 107.328 482.455 106.338C480.095 105.281 477.619 104.507 475.077 104.032C472.825 103.607 470.606 103.022 468.437 102.28C466.948 101.802 465.547 101.086 464.287 100.159C463.355 99.5111 462.621 98.6173 462.166 97.577C461.705 96.5978 461.483 95.5228 461.52 94.441C461.538 93.5003 461.762 92.575 462.177 91.7304C462.592 90.8859 463.187 90.1426 463.92 89.553C464.82 88.7899 465.851 88.1964 466.963 87.801C468.388 87.3205 469.888 87.1016 471.39 87.155C473.109 87.1401 474.82 87.389 476.463 87.893C477.801 88.3682 479.097 88.9542 480.337 89.645C481.315 90.2 482.214 90.8823 483.012 91.674C483.381 92.043 483.75 92.32 484.026 92.596L491.958 84.664C491.589 84.295 491.22 83.834 490.758 83.281C489.671 82.0695 488.394 81.0425 486.977 80.24V80.24Z" fill="#292929"/>
<path d="M725.573 84.483C723.825 82.8526 721.871 81.4574 719.762 80.333C717.464 79.0961 715.014 78.1659 712.475 77.566C709.574 76.8785 706.602 76.5378 703.622 76.551C698.927 76.4957 694.274 77.4388 689.972 79.318C685.969 81.069 682.362 83.6101 679.366 86.789C676.39 89.9792 674.043 93.7028 672.449 97.764C670.774 102.022 669.929 106.561 669.959 111.137C669.903 115.745 670.749 120.32 672.449 124.603C673.991 128.587 676.311 132.224 679.274 135.303C682.246 138.375 685.827 140.794 689.788 142.403C694.033 144.134 698.577 145.011 703.162 144.985C706.19 144.983 709.202 144.548 712.108 143.694C714.81 142.892 717.411 141.777 719.856 140.374C722.031 139.147 724.072 137.694 725.943 136.039C727.477 134.671 728.84 133.122 730.002 131.427L721.424 123.956C720.686 124.694 719.764 125.708 718.841 126.723C717.825 127.899 716.646 128.924 715.341 129.767C713.766 130.815 712.06 131.652 710.268 132.257C707.936 132.962 705.51 133.305 703.075 133.272C700.311 133.334 697.569 132.778 695.048 131.646C692.527 130.513 690.29 128.831 688.502 126.724C686.709 124.637 685.332 122.227 684.444 119.624C683.507 116.767 683.04 113.777 683.061 110.77C683.048 107.734 683.514 104.715 684.444 101.824C685.303 99.0768 686.716 96.5344 688.594 94.353C690.395 92.2204 692.627 90.4918 695.142 89.28C697.809 87.9691 700.748 87.3055 703.72 87.343C707.391 87.2083 711.02 88.1717 714.142 90.11C716.585 91.7361 718.737 93.7629 720.506 96.105L728.806 87.805C727.694 86.696 726.68 85.59 725.573 84.483V84.483Z" fill="#292929"/>
<path d="M628.731 78.119L621.353 85.405V124.511L589.718 78.119H577.267V143.419H589.349V96.381L621.261 143.419H633.435V78.119H628.731Z" fill="#292929"/>
<path d="M271.618 78.119L264.24 85.497V117.132C264.248 119.397 264.001 121.656 263.502 123.865C263.102 125.718 262.281 127.454 261.102 128.938C259.934 130.382 258.407 131.495 256.675 132.166C252.308 133.642 247.576 133.642 243.209 132.166C241.477 131.495 239.95 130.382 238.782 128.938C237.62 127.443 236.801 125.711 236.382 123.865C235.884 121.656 235.636 119.397 235.644 117.132V78.119H223.289V119.346C223.239 122.807 223.833 126.247 225.041 129.491C226.16 132.563 227.92 135.361 230.206 137.699C232.591 140.082 235.45 141.936 238.599 143.141C245.92 145.846 253.966 145.846 261.287 143.141C264.436 141.936 267.295 140.082 269.68 137.699C271.996 135.386 273.762 132.58 274.845 129.491C276.045 126.245 276.639 122.806 276.597 119.346V78.119H271.618Z" fill="#292929"/>
<path d="M0 113.628V143.328C0.00131963 143.817 0.196127 144.285 0.541846 144.631C0.887565 144.977 1.35608 145.172 1.845 145.173H31.545C31.7861 145.171 32.0243 145.121 32.246 145.026C32.4676 144.931 32.6681 144.793 32.836 144.62L64.1 113.443C64.273 113.275 64.411 113.075 64.506 112.853C64.6009 112.631 64.6509 112.393 64.653 112.152V82.362C64.6517 81.8732 64.457 81.4048 64.1115 81.0592C63.766 80.7135 63.2977 80.5186 62.809 80.517H33.018C32.7769 80.5191 32.5387 80.5691 32.317 80.664C32.0954 80.7589 31.8949 80.8969 31.727 81.07L0.553 112.336C0.379833 112.504 0.241773 112.705 0.14684 112.926C0.0519068 113.148 0.00199368 113.387 0 113.628H0Z" fill="url(#paint0_linear_325_2)"/>
<path d="M112.06 80.609H82.3596C81.871 80.6109 81.403 80.8059 81.0577 81.1516C80.7124 81.4972 80.5179 81.9655 80.5166 82.454V112.154C80.5187 112.395 80.5687 112.633 80.6636 112.855C80.7586 113.077 80.8965 113.277 81.0696 113.445L112.244 144.619C112.411 144.792 112.612 144.93 112.834 145.025C113.055 145.12 113.294 145.17 113.535 145.172H143.235C143.724 145.171 144.192 144.976 144.538 144.63C144.883 144.284 145.078 143.816 145.08 143.327V113.627C145.077 113.386 145.028 113.148 144.933 112.926C144.838 112.704 144.7 112.504 144.527 112.336L113.259 81.162C113.129 80.9686 112.948 80.8147 112.737 80.7172C112.525 80.6196 112.291 80.5822 112.06 80.609V80.609Z" fill="url(#paint1_linear_325_2)"/>
<path d="M0 1.845V31.545C0.00212579 31.7861 0.0521029 32.0243 0.147032 32.246C0.241961 32.4676 0.379952 32.6681 0.553 32.836L31.819 64.1C31.9869 64.273 32.1874 64.411 32.409 64.506C32.6307 64.6009 32.8689 64.6509 33.11 64.653H62.716C63.2049 64.6517 63.6734 64.4569 64.0192 64.1112C64.3649 63.7654 64.5597 63.2969 64.561 62.808V33.018C64.5589 32.7769 64.5089 32.5387 64.414 32.317C64.319 32.0954 64.1811 31.8949 64.008 31.727L32.834 0.553C32.6661 0.379952 32.4656 0.241961 32.244 0.147032C32.0223 0.0521029 31.7841 0.00212579 31.543 0L1.845 0C1.35608 0.00131963 0.887565 0.196127 0.541846 0.541846C0.196127 0.887565 0.00131963 1.35608 0 1.845H0Z" fill="url(#paint2_linear_325_2)"/>
<path d="M112.336 0.553026L81.0696 31.727C80.8966 31.8949 80.7586 32.0955 80.6636 32.3171C80.5687 32.5387 80.5187 32.7769 80.5166 33.018V62.718C80.5179 63.2069 80.7127 63.6755 81.0584 64.0212C81.4042 64.3669 81.8727 64.5617 82.3616 64.563H112.062C112.303 64.5609 112.541 64.5109 112.763 64.416C112.984 64.3211 113.185 64.1831 113.353 64.01L144.617 32.834C144.79 32.6662 144.928 32.4656 145.023 32.244C145.117 32.0224 145.167 31.7841 145.17 31.543V1.84503C145.168 1.35628 144.974 0.887914 144.628 0.542223C144.283 0.196533 143.814 0.00160933 143.326 2.59799e-05H113.626C113.382 -0.0159437 113.139 0.0258241 112.914 0.121925C112.69 0.218026 112.492 0.36574 112.336 0.553026V0.553026Z" fill="#292929"/>
</g>
<defs>
<linearGradient id="paint0_linear_325_2" x1="-38.6625" y1="31.7663" x2="101.125" y2="191.46" gradientUnits="userSpaceOnUse">
<stop stop-color="#B7EA3E"/>
<stop offset="1" stop-color="#24D35E"/>
</linearGradient>
<linearGradient id="paint1_linear_325_2" x1="8.59341" y1="-6.37714" x2="146.327" y2="151.095" gradientUnits="userSpaceOnUse">
<stop stop-color="#B7EA3E"/>
<stop offset="1" stop-color="#24D35E"/>
</linearGradient>
<linearGradient id="paint2_linear_325_2" x1="1.61402" y1="-2.78008" x2="139.609" y2="154.455" gradientUnits="userSpaceOnUse">
<stop stop-color="#B7EA3E"/>
<stop offset="1" stop-color="#24D35E"/>
</linearGradient>
<clipPath id="clip0_325_2">
<rect width="730" height="145.17" fill="white"/>
</clipPath>
</defs>
</svg>
